<svg width="24" height="24" viewBox="0 0 24 24" fill="#000000" xmlns="http://www.w3.org/2000/svg">
  <path d="M4 6.5C4 5.67157 4.67157 5 5.5 5H18.5C19.3284 5 20 5.67157 20 6.5C20 7.32843 19.3284 8 18.5 8H5.5C4.67157 8 4 7.32843 4 6.5Z"/>
  <path d="M6 17.5C6 16.6716 6.67157 16 7.5 16H16.5C17.3284 16 18 16.6716 18 17.5C18 18.3284 17.3284 19 16.5 19H7.5C6.67157 19 6 18.3284 6 17.5Z"/>
  <path d="M7 6.5C7 4.567 8.567 3 10.5 3H13.5C15.433 3 17 4.567 17 6.5C17 8.433 15.433 10 13.5 10H13V12.25H15.25C16.4926 12.25 17.5 13.2574 17.5 14.5V16.5H15.5V14.5C15.5 14.3619 15.3881 14.25 15.25 14.25H8.75C8.61193 14.25 8.5 14.3619 8.5 14.5V16.5H6.5V14.5C6.5 13.2574 7.50736 12.25 8.75 12.25H11V10H10.5C8.567 10 7 8.433 7 6.5ZM10.5 5C9.67157 5 9 5.67157 9 6.5C9 7.32843 9.67157 8 10.5 8H13.5C14.3284 8 15 7.32843 15 6.5C15 5.67157 14.3284 5 13.5 5H10.5Z"/>
</svg>
